<?xml version="1.0"?>
<svg version="1.1" xmlns="http://www.w3.org/2000/svg" width="400" height="50" style=""><path fill="#9718d6" d="M24.1171875,28.97265625l-3.09375,0l0,10.41796875l-3.57421875,0l0-10.41796875l-1.96875,0l0-1.72265625l1.96875-0.9609375l0-0.9609375q0-2.23828125,1.1015625-3.26953125t3.52734375-1.03125q1.8515625,0,3.29296875,0.55078125l-0.9140625,2.625q-1.078125-0.33984375-1.9921875-0.33984375q-0.76171875,0-1.1015625,0.451171875t-0.33984375,1.154296875l0,0.8203125l3.09375,0l0,2.68359375z M35.1301171875,26.04296875q0.7265625,0,1.20703125,0.10546875l-0.26953125,3.3515625q-0.43359375-0.1171875-1.0546875-0.1171875q-1.7109375,0-2.666015625,0.87890625t-0.955078125,2.4609375l0,6.66796875l-3.57421875,0l0-13.1015625l2.70703125,0l0.52734375,2.203125l0.17578125,0q0.609375-1.1015625,1.646484375-1.775390625t2.255859375-0.673828125z M43.213359375,32.81640625q0,1.9453125,0.638671875,2.94140625t2.080078125,0.99609375q1.4296875,0,2.056640625-0.990234375t0.626953125-2.947265625q0-1.9453125-0.6328125-2.91796875t-2.07421875-0.97265625q-1.4296875,0-2.0625,0.966796875t-0.6328125,2.923828125z M52.271953125,32.81640625q0,3.19921875-1.6875,5.00390625t-4.69921875,1.8046875q-1.88671875,0-3.328125-0.826171875t-2.21484375-2.373046875t-0.7734375-3.609375q0-3.2109375,1.67578125-4.9921875t4.7109375-1.78125q1.88671875,0,3.328125,0.8203125t2.21484375,2.35546875t0.7734375,3.59765625z M68.9684765625,39.390625l-3.57421875,0l0-7.65234375q0-1.41796875-0.50390625-2.126953125t-1.60546875-0.708984375q-1.5,0-2.16796875,1.001953125t-0.66796875,3.322265625l0,6.1640625l-3.57421875,0l0-13.1015625l2.73046875,0l0.48046875,1.67578125l0.19921875,0q0.59765625-0.94921875,1.646484375-1.435546875t2.384765625-0.486328125q2.28515625,0,3.46875,1.236328125t1.18359375,3.568359375l0,8.54296875z M79.81734375,36.77734375q0.9375,0,2.25-0.41015625l0,2.66015625q-1.3359375,0.59765625-3.28125,0.59765625q-2.14453125,0-3.123046875-1.083984375t-0.978515625-3.251953125l0-6.31640625l-1.7109375,0l0-1.51171875l1.96875-1.1953125l1.03125-2.765625l2.28515625,0l0,2.7890625l3.66796875,0l0,2.68359375l-3.66796875,0l0,6.31640625q0,0.76171875,0.427734375,1.125t1.130859375,0.36328125z M85.8615234375,37.71484375q0-0.984375,0.52734375-1.48828125t1.53515625-0.50390625q0.97265625,0,1.505859375,0.515625t0.533203125,1.4765625q0,0.92578125-0.5390625,1.458984375t-1.5,0.533203125q-0.984375,0-1.5234375-0.521484375t-0.5390625-1.470703125z M100.284609375,28.5859375q-1.13671875,0-1.78125,0.720703125t-0.73828125,2.044921875l5.015625,0q-0.0234375-1.32421875-0.69140625-2.044921875t-1.8046875-0.720703125z M100.788515625,39.625q-3.1640625,0-4.9453125-1.74609375t-1.78125-4.9453125q0-3.29296875,1.646484375-5.091796875t4.552734375-1.798828125q2.77734375,0,4.32421875,1.58203125t1.546875,4.37109375l0,1.734375l-8.44921875,0q0.05859375,1.5234375,0.90234375,2.37890625t2.3671875,0.85546875q1.18359375,0,2.23828125-0.24609375t2.203125-0.78515625l0,2.765625q-0.9375,0.46875-2.00390625,0.697265625t-2.6015625,0.228515625z M122.7819140625,39.390625l-3.57421875,0l0-7.65234375q0-1.41796875-0.50390625-2.126953125t-1.60546875-0.708984375q-1.5,0-2.16796875,1.001953125t-0.66796875,3.322265625l0,6.1640625l-3.57421875,0l0-13.1015625l2.73046875,0l0.48046875,1.67578125l0.19921875,0q0.59765625-0.94921875,1.646484375-1.435546875t2.384765625-0.486328125q2.28515625,0,3.46875,1.236328125t1.18359375,3.568359375l0,8.54296875z M132.2596875,39.625q-2.30859375,0-3.626953125-1.79296875t-1.318359375-4.96875q0-3.22265625,1.341796875-5.021484375t3.697265625-1.798828125q2.47265625,0,3.7734375,1.921875l0.1171875,0q-0.26953125-1.46484375-0.26953125-2.61328125l0-4.1953125l3.5859375,0l0,18.234375l-2.7421875,0l-0.69140625-1.69921875l-0.15234375,0q-1.21875,1.93359375-3.71484375,1.93359375z M133.51359375,36.77734375q1.37109375,0,2.009765625-0.796875t0.697265625-2.70703125l0-0.38671875q0-2.109375-0.650390625-3.0234375t-2.115234375-0.9140625q-1.1953125,0-1.857421875,1.013671875t-0.662109375,2.947265625t0.66796875,2.900390625t1.91015625,0.966796875z M156.0108984375,39.390625l-11.9765625,0l0-2.51953125l4.30078125-4.34765625q1.91015625-1.95703125,2.49609375-2.712890625t0.84375-1.400390625t0.2578125-1.3359375q0-1.03125-0.568359375-1.53515625t-1.517578125-0.50390625q-0.99609375,0-1.93359375,0.45703125t-1.95703125,1.30078125l-1.96875-2.33203125q1.265625-1.078125,2.09765625-1.5234375t1.81640625-0.685546875t2.203125-0.240234375q1.60546875,0,2.8359375,0.5859375t1.91015625,1.640625t0.6796875,2.4140625q0,1.18359375-0.416015625,2.220703125t-1.2890625,2.126953125t-3.076171875,3.10546875l-2.203125,2.07421875l0,0.1640625l7.46484375,0l0,3.046875z M171.746484375,35.83984375l-2.0625,0l0,3.55078125l-3.5390625,0l0-3.55078125l-7.3125,0l0-2.51953125l7.51171875-11.0625l3.33984375,0l0,10.76953125l2.0625,0l0,2.8125z M166.144921875,33.02734375l0-2.90625q0-0.7265625,0.05859375-2.109375t0.09375-1.60546875l-0.09375,0q-0.43359375,0.9609375-1.04296875,1.875l-3.140625,4.74609375l4.125,0z"/><path fill="#" d=""/></svg>
